<svg width="28" height="32" viewBox="0 0 28 32" fill="none" xmlns="http://www.w3.org/2000/svg">
<path d="M22.7684 17.9376C21.8881 13.5076 26.093 10.9094 26.093 10.9094C26.093 10.9094 24.4547 8.53925 21.7014 7.9295C18.9494 7.31841 17.5721 8.08191 16.1975 8.65455C14.8215 9.22858 14.1349 9.22858 14.1349 9.22858C12.1492 9.22858 10.6977 7.12616 6.91446 8.08331C4.30809 8.74106 1.56433 11.7498 1.0686 15.3409C0.572865 18.9332 1.64264 23.5171 3.70521 27.0696C5.76779 30.625 7.86888 31.9611 9.36015 31.9995C10.8515 32.0366 12.3401 30.9312 14.1349 30.662C15.9311 30.3956 17.0365 31.3129 18.7984 31.8087C20.5533 32.3031 21.1686 31.8444 23.1899 30.1251C25.2168 28.4058 27.0515 23.4745 27.0515 23.4745C27.0515 23.4745 23.6486 22.3704 22.7684 17.9376Z" fill="#1F2937"/>
<path d="M18.871 5.06308C20.821 3.07607 20.1605 0 20.1605 0C20.1605 0 17.4223 0.480646 15.5876 2.38941C13.7544 4.29958 14.0578 7.31658 14.0578 7.31658C14.0578 7.31658 16.921 7.04881 18.871 5.06308Z" fill="#1F2937"/>
</svg>
