<svg width="24" height="22" viewBox="0 0 24 22" fill="none" xmlns="http://www.w3.org/2000/svg">
<path d="M23.2969 7.48437H20.8223L15.4084 0.717023C15.1659 0.413883 14.7234 0.364617 14.4202 0.607242C14.1169 0.84982 14.0677 1.29227 14.3104 1.59551L19.0215 7.48437H4.97855L9.68967 1.59551C9.93225 1.29227 9.88308 0.849773 9.57989 0.607242C9.27661 0.364617 8.83416 0.413836 8.59163 0.717023L3.1777 7.48437H0.703125C0.314812 7.48437 0 7.79918 0 8.18749V11C0 11.3883 0.314812 11.7031 0.703125 11.7031H1.57903L4.24584 21.0369C4.33205 21.3388 4.60795 21.5469 4.92188 21.5469H19.0781C19.392 21.5469 19.668 21.3388 19.7542 21.0369L22.421 11.7031H23.2969C23.6852 11.7031 24 11.3883 24 11V8.18749C24 7.79918 23.6852 7.48437 23.2969 7.48437ZM18.5478 20.1406H5.45222L3.04153 11.7031H20.9585L18.5478 20.1406ZM22.5938 10.2969C20.1851 10.2969 3.68813 10.2969 1.40625 10.2969V8.89062H22.5938V10.2969Z" fill="black"/>
</svg>
