<svg width="32" height="32" viewBox="0 0 32 32" fill="none" xmlns="http://www.w3.org/2000/svg">
<path fill-rule="evenodd" clip-rule="evenodd" d="M15.9489 0.485352C18.8335 0.518268 21.4394 1.22721 23.7667 2.61218C26.0662 3.9695 27.9791 5.89407 29.3224 8.20184C30.6989 10.5432 31.4036 13.1649 31.4364 16.067C31.3547 20.0379 30.1022 23.4293 27.6791 26.2415C25.256 29.0536 22.1526 30.7933 18.9399 31.4603V20.3273H21.9772L22.6641 15.9523H18.0649V13.0868C18.0394 12.4927 18.2272 11.9092 18.5945 11.4416C18.9623 10.9727 19.61 10.7263 20.5376 10.7023H23.3149V6.86989C23.2751 6.85707 22.8969 6.80637 22.1805 6.71779C21.3681 6.62273 20.551 6.57196 19.733 6.56569C17.8817 6.57424 16.4175 7.09647 15.3405 8.13241C14.2634 9.16805 13.7133 10.6664 13.6899 12.6275V15.9523H10.1899V20.3273H13.6899V31.4603C9.74525 30.7933 6.64181 29.0536 4.21869 26.2415C1.79556 23.4293 0.543188 20.0378 0.461426 16.067C0.494138 13.1647 1.1988 10.543 2.5754 8.20184C3.9187 5.89407 5.83158 3.96951 8.13113 2.61218C10.4584 1.22748 13.0643 0.518535 15.9489 0.485352Z" fill="#1F2937"/>
</svg>
