<svg width="32" height="32" viewBox="0 0 32 32" fill="none" xmlns="http://www.w3.org/2000/svg">
<path fill-rule="evenodd" clip-rule="evenodd" d="M15.9999 12.5006C18.1637 12.5006 19.9177 14.2275 19.9177 16.3578C19.9177 18.4876 18.1637 20.2145 15.9999 20.2145C13.8362 20.2145 12.0822 18.4876 12.0822 16.3578C12.0822 14.2275 13.8362 12.5006 15.9999 12.5006ZM15.9999 10.9583C12.9707 10.9583 10.515 13.3756 10.515 16.3578C10.515 19.3395 12.9707 21.7573 15.9999 21.7573C19.0292 21.7573 21.4848 19.3395 21.4848 16.3578C21.4848 13.3756 19.0292 10.9583 15.9999 10.9583ZM21.6542 9.66028C21.3501 9.66504 21.0542 9.75957 20.8036 9.93199C20.5531 10.1044 20.3591 10.347 20.246 10.6294C20.1329 10.9117 20.1058 11.2212 20.1681 11.5189C20.2303 11.8166 20.3792 12.0893 20.5959 12.3026C20.8126 12.516 21.0876 12.6606 21.3862 12.7181C21.6849 12.7757 21.9939 12.7438 22.2744 12.6263C22.5549 12.5088 22.7945 12.311 22.963 12.0578C23.1314 11.8046 23.2213 11.5072 23.2213 11.2031C23.2181 10.7907 23.0511 10.3965 22.7572 10.1072C22.4634 9.81784 22.0666 9.65709 21.6542 9.66028ZM12.1714 7.9812H19.8285C22.3196 7.9812 24.339 9.96918 24.339 12.4211V20.294C24.339 22.7464 22.3196 24.734 19.8285 24.734H12.1714C9.68032 24.734 7.66092 22.7464 7.66092 20.294V12.4211C7.66092 9.96918 9.68029 7.9812 12.1714 7.9812ZM11.4492 6.44568C8.48825 6.44568 6.08793 8.8088 6.08793 11.7235V20.9917C6.08793 23.9068 8.48822 26.2695 11.4492 26.2695H20.5507C23.5116 26.2695 25.9119 23.9068 25.9119 20.9917V11.7235C25.9119 8.80878 23.5116 6.44568 20.5507 6.44568H11.4492ZM15.9999 0.870117C24.5535 0.870117 31.4874 7.80387 31.4874 16.3578C31.4874 24.9113 24.5535 31.845 15.9999 31.845C7.44642 31.845 0.512451 24.9113 0.512451 16.3578C0.512451 7.80389 7.44642 0.870117 15.9999 0.870117Z" fill="#1F2937"/>
</svg>
