<svg width="32" height="32" viewBox="0 0 32 32" fill="none" xmlns="http://www.w3.org/2000/svg">
<path fill-rule="evenodd" clip-rule="evenodd" d="M15.9086 0.503906C7.3633 0.503906 0.421143 7.44622 0.421143 15.9916C0.421143 24.5369 7.36331 31.4788 15.9086 31.4788C24.454 31.4788 31.3962 24.5369 31.3962 15.9916C31.3962 7.4462 24.454 0.503906 15.9086 0.503906ZM25.18 20.9976C25.0741 21.2548 24.575 21.6175 22.8205 21.8901C22.6693 21.92 22.624 22.1016 22.5332 22.4951C22.505 22.6379 22.4697 22.7792 22.4273 22.9185C22.3819 23.0544 22.3063 23.115 22.1702 23.115H22.1551C22.0219 23.1119 21.8897 23.0915 21.7618 23.0544C21.4124 22.9907 21.0583 22.9554 20.7031 22.9488C20.4498 22.947 20.1967 22.9671 19.9469 23.0091C19.4175 23.1001 18.9789 23.4175 18.4949 23.7503C17.8143 24.2344 17.1035 24.7334 15.9994 24.7334H15.7574C14.6533 24.7334 13.9425 24.2344 13.2619 23.7503C12.793 23.4175 12.3393 23.1001 11.8099 23.0091C11.56 22.9671 11.307 22.947 11.0537 22.9488C10.6977 22.955 10.3431 22.9955 9.99494 23.0698C9.86587 23.1013 9.73427 23.1215 9.60166 23.13C9.54 23.1368 9.47803 23.1204 9.42774 23.0841C9.37745 23.0478 9.34243 22.9941 9.32945 22.9335C9.28406 22.7822 9.25383 22.631 9.22355 22.4951C9.14792 22.132 9.08747 21.92 8.93623 21.8901C7.18174 21.6175 6.68266 21.2548 6.57676 20.9976C6.55965 20.9594 6.54941 20.9185 6.54653 20.8767C6.54551 20.8293 6.56185 20.7831 6.59249 20.7469C6.62313 20.7107 6.66596 20.687 6.71289 20.6802C9.40507 20.2264 10.615 17.4737 10.6604 17.3528H10.6756C10.8419 17.02 10.8721 16.7175 10.7663 16.4906C10.5848 16.0518 9.97978 15.8553 9.58656 15.7343C9.49435 15.7086 9.4035 15.6782 9.31435 15.6433C8.51273 15.3259 8.45222 15.0085 8.48248 14.8418C8.54293 14.5547 8.90593 14.3578 9.22353 14.3578C9.29667 14.3567 9.36909 14.3724 9.43529 14.4035C9.79829 14.5697 10.1159 14.6602 10.3882 14.6602C10.7814 14.6602 10.9477 14.494 10.9629 14.4791C10.9629 14.2975 10.9477 14.101 10.9326 13.904C10.857 12.6338 10.7512 11.0457 11.1595 10.1383C12.3695 7.43082 14.9255 7.21933 15.6817 7.21933H16.0599C16.8161 7.21933 19.3873 7.43082 20.5972 10.1383C21.0056 11.0458 20.8997 12.6338 20.8241 13.904V13.9647C20.809 14.1309 20.7938 14.3125 20.7938 14.4791C20.809 14.494 20.9602 14.6453 21.3081 14.6602C21.5803 14.6453 21.8828 14.5547 22.2155 14.4035C22.3064 14.3644 22.4041 14.3438 22.5029 14.3428C22.613 14.3446 22.7214 14.3704 22.8205 14.4184H22.8356C23.0928 14.509 23.2743 14.706 23.2743 14.9025C23.2894 15.0841 23.1381 15.3712 22.4424 15.6433C22.3668 15.6737 22.276 15.704 22.1853 15.7343C21.7769 15.8553 21.1719 16.0518 20.9904 16.4906C20.8846 16.7175 20.9148 17.02 21.0812 17.3528H21.0963C21.1417 17.4737 22.3516 20.2264 25.0438 20.6802C25.0908 20.687 25.1336 20.7107 25.1642 20.7469C25.1949 20.7831 25.2112 20.8293 25.2102 20.8767C25.2073 20.9185 25.1971 20.9594 25.1799 20.9976H25.18Z" fill="#1F2937"/>
</svg>
