<svg width="32" height="32" viewBox="0 0 32 32" fill="none" xmlns="http://www.w3.org/2000/svg">
<g clip-path="url(#clip0_15_206)">
<path d="M16 0C12.8355 0 9.74208 0.938384 7.11089 2.69649C4.4797 4.45459 2.42894 6.95345 1.21794 9.87707C0.00693252 12.8007 -0.309921 16.0177 0.307443 19.1214C0.924807 22.2251 2.44866 25.0761 4.6863 27.3137C6.92395 29.5513 9.77488 31.0752 12.8786 31.6926C15.9823 32.3099 19.1993 31.9931 22.123 30.7821C25.0466 29.5711 27.5455 27.5203 29.3036 24.8891C31.0617 22.2579 32 19.1645 32 16C32 11.7565 30.3143 7.68687 27.3137 4.68629C24.3132 1.68571 20.2435 0 16 0V0ZM23.2127 14.2168C21.7853 14.3747 20.5621 13.8105 19.339 13.0905C19.339 13.2084 19.3748 16.8632 19.3137 18.6063C19.2527 20.3979 18.6127 21.9747 17.2084 23.1516C14.2316 25.6505 10.0063 24.3011 8.99791 20.48C8.45054 18.3979 8.92633 16.5221 10.56 15.0379C11.48 14.1958 12.6148 13.8211 13.8316 13.6653C14.0927 13.6316 14.3558 13.6168 14.6379 13.5916V16.4211C14.28 16.5095 13.9179 16.5874 13.5621 16.6926C13.3153 16.7639 13.0745 16.8547 12.8421 16.9642C12.5179 17.11 12.2316 17.3285 12.0054 17.6028C11.7792 17.8771 11.6192 18.1998 11.5377 18.5458C11.4563 18.8919 11.4556 19.2521 11.5358 19.5984C11.616 19.9448 11.7748 20.2681 12 20.5432C12.2708 20.9176 12.6392 21.2106 13.0649 21.3903C13.4907 21.5699 13.9576 21.6294 14.4148 21.5621C15.3348 21.4505 15.9116 20.8716 16.2527 20.04C16.4885 19.3819 16.5908 18.6834 16.5537 17.9853C16.5411 14.5495 16.5411 11.1158 16.5348 7.68C16.5377 7.64466 16.5426 7.60952 16.5495 7.57474H19.2969C19.6042 9.87368 20.7706 11.3305 23.2127 11.5368V14.2168Z" fill="#1F2937"/>
</g>
<defs>
<clipPath id="clip0_15_206">
<rect width="32" height="32" fill="white"/>
</clipPath>
</defs>
</svg>
